PathFileType	4	(X/Y/Z)	3_coords_data.trc
DataRate	CameraRate	NumFrames	NumMarkers	Units	OrigDataRate	OrigDataStartFrame	OrigNumFrames
30.0	30.0	8	21	m	30.0	49	58
Frame#	Time	THUMB_TIP	THUMB_IP	THUMB_MCP	THUMB_CMC	INDEX_TIP	INDEX_DIP	INDEX_PIP	INDEX_MCP	MIDDLE_TIP	MIDDLE_DIP	MIDDLE_PIP	MIDDLE_MCP	RING_TIP	RING_DIP	RING_PIP	RING_MCP	PINKY_TIP	PINKY_DIP	PINKY_PIP	PINKY_MCP	WRIST
X1	Y1	Z1	X2	Y2	Z2	X3	Y3	Z3	X4	Y4	Z4	X5	Y5	Z5	X6	Y6	Z6	X7	Y7	Z7	X8	Y8	Z8	X9	Y9	Z9	X10	Y10	Z10	X11	Y11	Z11	X12	Y12	Z12	X13	Y13	Z13	X14	Y14	Z14	X15	Y15	Z15	X16	Y16	Z16	X17	Y17	Z17	X18	Y18	Z18	X19	Y19	Z19	X20	Y20	Z20	X21	Y21	Z21
47	1.599999999999993	0.5213722907394343	-0.010863858401004234	-0.15803622490125818	0.5066349407448348	-0.015040412751485377	-0.1409082679625524	0.48595133732457296	-0.024568816241214653	-0.11968992503737919	0.4755148629677569	-0.029379510478675708	-0.07658740511158846	0.5766144963336789	0.012926567160365554	-0.14982184522681824	0.5603731937743881	0.020166931951516864	-0.14638713870825926	0.5367081636092247	0.02460338569207665	-0.13915567561357484	0.5025229135801311	0.008765763118954717	-0.11930184762802765	0.5902076134480241	0.03180248819603004	-0.13630504205319555	0.5736176580562583	0.036878892743730796	-0.1311085531455476	0.5463195022463286	0.03837630106688894	-0.1210101370474389	0.5103910899605336	0.02018128534851893	-0.10166489177553273	0.5910810994474013	0.02573812214619431	-0.10895857453646063	0.5761008585068366	0.03393684867717062	-0.10318161472762533	0.5531841232782656	0.04033585493053016	-0.09582933994814102	0.5176720540429777	0.02558344634724241	-0.08334013606559287	0.5894586520705207	0.018949511046182033	-0.08118418024617624	0.5755450177476924	0.02655818153590528	-0.0747406630925227	0.5557231812862776	0.03051743573309429	-0.06906341688516382	0.5222525038973794	0.018842392233974548	-0.06240830115198792	0.4622830810018609	-0.023011742144276925	-0.051989820119430985
48	1.6333333333333262	0.5248596193906437	-0.01136724784122145	-0.1557821229789137	0.5091592647198726	-0.015558063473322892	-0.1395360179826468	0.4876538866806924	-0.02510750968279929	-0.11916086663390202	0.47601336352987933	-0.029384978813403073	-0.07631122861195239	0.5772079254352074	0.011332828902983816	-0.14803418594088913	0.5611524775102207	0.019200576835094907	-0.1451495482851684	0.5374467964272754	0.024282723848709886	-0.1384995633885165	0.502897923223553	0.008612753389524497	-0.11914850449859093	0.5905534118910422	0.030129618478013542	-0.13504505168061448	0.5740829055419893	0.03594760309264089	-0.13026242942605948	0.546677809599871	0.03820136864631174	-0.12060371278085341	0.5104961833132694	0.020271525532566836	-0.10148412684984531	0.5903201129667278	0.024239744655589313	-0.10815480201475791	0.5757813506707885	0.033404208901058774	-0.10271081579180608	0.5530224919933472	0.04063912176191564	-0.09564892039495543	0.5175224514589307	0.02590263717181074	-0.0831068321326125	0.5883091222576688	0.018098550107961686	-0.08130076262996977	0.5749150342805704	0.026553672671798534	-0.0748115939858176	0.5552585135326519	0.031149034857258173	-0.06903960494640615	0.5218458553742348	0.01950688728354355	-0.062044025938159275	0.4622830810018608	-0.023011742144276925	-0.051989820119430985
50	1.6666666666666683	0.5273684282496092	-0.012171719620286514	-0.15417436696000103	0.5110759575887377	-0.016324881925089296	-0.1385120988409	0.4890248521221824	-0.025793541578982282	-0.11869005979186187	0.4764779138965407	-0.029411742517056583	-0.07603595139497177	0.5778872360864182	0.010188759680942683	-0.14697422427782442	0.561922607826764	0.018343086677727327	-0.14439787108764313	0.5381894755625868	0.023730358388225792	-0.13809504874774353	0.5034265679537546	0.008191355208637008	-0.11902371610514806	0.5911404933550553	0.02897293441532034	-0.13404792725271275	0.5747195230357791	0.03516049160225743	-0.12956843288037234	0.5472255993805702	0.037783332726020635	-0.12026174622608699	0.5108464820158087	0.020049136235296916	-0.10133541494954779	0.590183868009704	0.023437845615874475	-0.10729989267943918	0.5758546015595877	0.03310069590712306	-0.10217139901653105	0.5531233611611768	0.040706161121167095	-0.09541657941659953	0.5176418769927388	0.025884791770053317	-0.08292209560322161	0.5877516298655256	0.017828859629315574	-0.08084318576743277	0.5745989879141129	0.02675055811766236	-0.07448619703211423	0.5549886205134744	0.031652417781656395	-0.06881017014295265	0.5216442551925988	0.019856758624974713	-0.06174623516254818	0.462283081001861	-0.023011742144276925	-0.051989820119430985
51	1.7000000000000015	0.529443380306609	-0.013095308545511442	-0.152827286279674	0.5127010652182289	-0.017194190216715532	-0.13763208787600512	0.49021211254391384	-0.0265297474607461	-0.11824357636645777	0.47689613420418975	-0.02946261115717097	-0.07577037267996645	0.5786167268175085	0.009187320284408385	-0.1461883047785288	0.5627025745541794	0.017504250513099895	-0.14382855281896645	0.5389441205953248	0.0230647176036205	-0.13777653627733133	0.5040148103720278	0.0076491121582242805	-0.11891020409334396	0.5918320466291791	0.027961413820132286	-0.13319686228175687	0.5754326134121065	0.03437401223688641	-0.1289616324527847	0.5478607241429523	0.03722669387169719	-0.11995815092506923	0.5113005196707625	0.019676301947899044	-0.10121026802398492	0.5903272547605568	0.022814274290414716	-0.10646478878189336	0.5761138268235972	0.032794714983824136	-0.10163061151516084	0.5533649448971699	0.04060575765641716	-0.09517646846868233	0.5178866010912472	0.02570148002440864	-0.08277201511286048	0.5874842126141441	0.01766416138917537	-0.08023292382869529	0.5744590384267098	0.026899675133413625	-0.07406444563168602	0.5548518125969085	0.03198717050115718	-0.06854302324770134	0.5215636637826663	0.020024393402040874	-0.06149500483131487	0.4622830810018609	-0.023011742144276925	-0.051989820119430985
52	1.733333333333335	0.5311195094697939	-0.014075351264811076	-0.1517356711819554	0.5140396198545656	-0.01809770521583287	-0.1368999696675573	0.49120499897291514	-0.02726366008483949	-0.11783730037570228	0.4772549941557753	-0.0295312337140885	-0.07552718958126314	0.5793483803192527	0.00831501465699358	-0.1456027548188502	0.5634531036545753	0.01670837939286063	-0.14339105679152675	0.539669339314141	0.022353474026103437	-0.1375194902730913	0.5046040761342254	0.007057810055109415	-0.11880836855872862	0.5925685414154033	0.027058532289725656	-0.1324756155717332	0.5761680882949359	0.03359132378975471	-0.1284323776785964	0.5485276648144667	0.03658720728115483	-0.11968931060083243	0.511794823116384	0.019219964368063835	-0.10110907552747306	0.590667419582129	0.02232934185023905	-0.10570173103422653	0.5764902656083589	0.03248117028565489	-0.10112475773062324	0.5536937255315918	0.04037637636381208	-0.09494709955686609	0.5181996334866006	0.025414513231118763	-0.08265755458968971	0.5874575940112076	0.017558740439647003	-0.07957898105009698	0.5744621851935049	0.026976332837392758	-0.07362681311809971	0.5548275590941238	0.032152658009469204	-0.06828835504011188	0.5215795630858583	0.020045717416098285	-0.06129720335366229	0.4622830810018609	-0.023011742144276925	-0.051989820119430985
53	1.7666666666666684	0.5324238169253919	-0.015049705226292343	-0.15089309487952396	0.515095054355733	-0.01896674969730683	-0.13632014904086504	0.4919945554034696	-0.027941996294171045	-0.11748847634081111	0.4775423296466742	-0.029611611074597866	-0.07531934595898326	0.5800271867918525	0.007562403533548867	-0.14514658885622245	0.5641319420821789	0.015982156403221093	-0.14303733371915656	0.5403241088479296	0.02166563705415836	-0.13730192114632495	0.5051371352908707	0.006490903406782378	-0.1187212741009166	0.5932842897778817	0.02623065353142995	-0.13186942354246656	0.5768699274088823	0.032817176851346774	-0.1279724479747516	0.5491717459447376	0.03592208261277785	-0.1194530669061557	0.5122672877646213	0.018748462669704313	-0.10103362974095131	0.5911152453775201	0.021948833050570937	-0.10506510319209794	0.5769137632517765	0.03215622042972266	-0.10069164365482974	0.5540570845734637	0.04005676330078267	-0.09474743293019161	0.5185246818753311	0.025086044849682687	-0.0825799853114163	0.5876172540240526	0.017470754004464295	-0.07899112853569823	0.5745737426588478	0.026955304555744908	-0.07325439496109554	0.5548949267609361	0.032146825994273986	-0.06809645651541862	0.5216664461359312	0.01995543112424647	-0.06115949626782191	0.4622830810018609	-0.023011742144276925	-0.051989820119430985
54	1.8000000000000016	0.5333783983651326	-0.015955956134076743	-0.15029122093431163	0.5158700626377981	-0.019732298891326105	-0.1358968673385883	0.4925732682050499	-0.028511265360212756	-0.11721508163977379	0.47774644003969813	-0.029698019965802125	-0.07515979921222082	0.580594968878299	0.006920563929300405	-0.14475070724159844	0.5646961633965579	0.015353301161900035	-0.1427216860441506	0.5408684392275025	0.021071205771503343	-0.13710430580075517	0.5055584375110351	0.006023070332789038	-0.1186545499053192	0.5939109037911676	0.02544508953842395	-0.1313653427852413	0.5774819266182915	0.032057612898228616	-0.12757545573294682	0.5497397008566663	0.03528994748351144	-0.11924896349912989	0.5126576888498537	0.01833153745866234	-0.10098740179275567	0.5915780578298783	0.021639666379960953	-0.10461204696516258	0.5773144492732448	0.03181625369956553	-0.10037099267765348	0.5544036806282092	0.03968646892162653	-0.09459722688294925	0.5188067252866289	0.024779082837479538	-0.08254121408651771	0.5879053034111584	0.017358407835944334	-0.07858185483841174	0.5747587301002524	0.026810349871117523	-0.07302952182023859	0.5550329660066263	0.031966860059410074	-0.0680178701363473	0.5217984771314698	0.019787509090377298	-0.06108854042993139	0.4622830810018609	-0.023011742144276925	-0.051989820119430985
55	1.8333333333333344	0.5340024074177075	-0.016730756481742604	-0.14991823240330648	0.5163668802409507	-0.02032537983379712	-0.1356330350243854	0.49293438592415684	-0.02891843215763401	-0.11703471085651396	0.4778555335036765	-0.029784880006159753	-0.07506129691617369	0.5809923900993786	0.0063803473968140345	-0.1443472390661057	0.5651029078471839	0.014849844116125555	-0.1423999386068141	0.5412633435062044	0.02064034076612109	-0.1369085677780783	0.5058139176835014	0.005729372080290118	-0.11861547302374964	0.5943787339135576	0.02467017835319585	-0.13095153087095507	0.5779478232142157	0.03132019873773062	-0.12723637239849078	0.5501794532223792	0.0347503676683093	-0.1190778725912855	0.5129074810452492	0.018039854419734436	-0.10097519991578074	0.5919608723164456	0.021367508600785068	-0.10440049916061289	0.5776230480321833	0.03145771912159456	-0.10020354235366702	0.5546829621863548	0.03930593649474379	-0.09451689796089702	0.5189919349916734	0.024557513902067618	-0.08254378463075807	0.588260700389651	0.017177325309986946	-0.07846523492643687	0.5749816489282988	0.02651426613336727	-0.07303491924984329	0.555219959685438	0.03160972618572988	-0.0681029881753682	0.5219498897493051	0.01957561465598112	-0.061091136983678074	0.4622830810018609	-0.023011742144276925	-0.051989820119430985
